<mxfile host="app.diagrams.net" modified="2024-01-08T14:02:01.314Z" agent="Mozilla/5.0 (Macintosh; Intel Mac OS X 10_15_7) AppleWebKit/537.36 (KHTML, like Gecko) Chrome/116.0.0.0 Whale/3.22.205.18 Safari/537.36" etag="UwckuoLNgR6n05oox_iD" version="22.1.17" type="github">
  <diagram id="6oojn5KAw8aXJEHvEB7P" name="페이지-1">
    <mxGraphModel dx="2620" dy="2251" grid="1" gridSize="10" guides="1" tooltips="1" connect="1" arrows="1" fold="1" page="0" pageScale="1" pageWidth="1169" pageHeight="827" math="0" shadow="0">
      <root>
        <mxCell id="0" />
        <mxCell id="1" parent="0" />
        <mxCell id="rS5YzvvpMupWirfGaCEM-1" value="" style="endArrow=none;html=1;rounded=0;strokeWidth=3;fillColor=#dae8fc;strokeColor=#6c8ebf;" parent="1" edge="1">
          <mxGeometry width="50" height="50" relative="1" as="geometry">
            <mxPoint x="-840" y="-280" as="sourcePoint" />
            <mxPoint x="-400" y="-280" as="targetPoint" />
          </mxGeometry>
        </mxCell>
        <mxCell id="rS5YzvvpMupWirfGaCEM-2" value="" style="endArrow=none;html=1;rounded=0;strokeWidth=3;fillColor=#d5e8d4;strokeColor=#82b366;" parent="1" edge="1">
          <mxGeometry width="50" height="50" relative="1" as="geometry">
            <mxPoint x="-840" y="-40" as="sourcePoint" />
            <mxPoint x="-400" y="-40" as="targetPoint" />
          </mxGeometry>
        </mxCell>
        <mxCell id="rS5YzvvpMupWirfGaCEM-3" value="&lt;span style=&quot;font-size: 15px;&quot;&gt;Consumer&lt;br&gt;Heartbeat Thread&lt;br&gt;&lt;/span&gt;" style="text;html=1;strokeColor=none;fillColor=none;align=center;verticalAlign=middle;whiteSpace=wrap;rounded=0;" parent="1" vertex="1">
          <mxGeometry x="-960" y="-300" width="120" height="30" as="geometry" />
        </mxCell>
        <mxCell id="rS5YzvvpMupWirfGaCEM-4" value="&lt;span style=&quot;font-size: 15px;&quot;&gt;Group Coordinator&lt;br&gt;&lt;/span&gt;" style="text;html=1;strokeColor=none;fillColor=none;align=center;verticalAlign=middle;whiteSpace=wrap;rounded=0;" parent="1" vertex="1">
          <mxGeometry x="-960" y="-60" width="120" height="30" as="geometry" />
        </mxCell>
        <mxCell id="rS5YzvvpMupWirfGaCEM-7" value="" style="endArrow=baseDash;html=1;rounded=0;endFill=0;startArrow=baseDash;startFill=0;strokeWidth=2;" parent="1" edge="1">
          <mxGeometry width="50" height="50" relative="1" as="geometry">
            <mxPoint x="-680" y="-300" as="sourcePoint" />
            <mxPoint x="-800" y="-300" as="targetPoint" />
          </mxGeometry>
        </mxCell>
        <mxCell id="rS5YzvvpMupWirfGaCEM-8" value="" style="endArrow=none;html=1;rounded=0;endFill=0;" parent="1" edge="1">
          <mxGeometry width="50" height="50" relative="1" as="geometry">
            <mxPoint x="-680" y="-280" as="sourcePoint" />
            <mxPoint x="-650" y="-110" as="targetPoint" />
          </mxGeometry>
        </mxCell>
        <mxCell id="rS5YzvvpMupWirfGaCEM-10" value="" style="endArrow=baseDash;html=1;rounded=0;endFill=0;startArrow=baseDash;startFill=0;strokeWidth=2;" parent="1" edge="1">
          <mxGeometry width="50" height="50" relative="1" as="geometry">
            <mxPoint x="-510" y="-20" as="sourcePoint" />
            <mxPoint x="-760" y="-20" as="targetPoint" />
          </mxGeometry>
        </mxCell>
        <mxCell id="rS5YzvvpMupWirfGaCEM-13" value="Heartbeat" style="text;html=1;strokeColor=none;fillColor=none;align=center;verticalAlign=middle;whiteSpace=wrap;rounded=0;" parent="1" vertex="1">
          <mxGeometry x="-840" y="-180" width="60" height="30" as="geometry" />
        </mxCell>
        <mxCell id="rS5YzvvpMupWirfGaCEM-14" value="Heartbeat" style="text;html=1;strokeColor=none;fillColor=none;align=center;verticalAlign=middle;whiteSpace=wrap;rounded=0;" parent="1" vertex="1">
          <mxGeometry x="-720" y="-180" width="60" height="30" as="geometry" />
        </mxCell>
        <mxCell id="rS5YzvvpMupWirfGaCEM-15" value="Heartbeat" style="text;html=1;strokeColor=none;fillColor=none;align=center;verticalAlign=middle;whiteSpace=wrap;rounded=0;" parent="1" vertex="1">
          <mxGeometry x="-600" y="-180" width="60" height="30" as="geometry" />
        </mxCell>
        <mxCell id="rS5YzvvpMupWirfGaCEM-16" value="" style="endArrow=baseDash;html=1;rounded=0;endFill=0;startArrow=none;startFill=0;strokeWidth=2;exitX=1;exitY=0;exitDx=0;exitDy=0;" parent="1" edge="1" source="rS5YzvvpMupWirfGaCEM-19">
          <mxGeometry width="50" height="50" relative="1" as="geometry">
            <mxPoint x="-320" y="10" as="sourcePoint" />
            <mxPoint x="-520" y="10" as="targetPoint" />
          </mxGeometry>
        </mxCell>
        <mxCell id="rS5YzvvpMupWirfGaCEM-17" value="heartbeat.interval.ms" style="text;html=1;strokeColor=none;fillColor=none;align=center;verticalAlign=middle;whiteSpace=wrap;rounded=0;" parent="1" vertex="1">
          <mxGeometry x="-800" y="-340" width="120" height="30" as="geometry" />
        </mxCell>
        <mxCell id="rS5YzvvpMupWirfGaCEM-18" value="session.timeout.ms" style="text;html=1;strokeColor=none;fillColor=none;align=center;verticalAlign=middle;whiteSpace=wrap;rounded=0;" parent="1" vertex="1">
          <mxGeometry x="-760" y="-20" width="120" height="30" as="geometry" />
        </mxCell>
        <mxCell id="rS5YzvvpMupWirfGaCEM-19" value="session.timeout.ms" style="text;html=1;strokeColor=none;fillColor=none;align=center;verticalAlign=middle;whiteSpace=wrap;rounded=0;" parent="1" vertex="1">
          <mxGeometry x="-520" y="10" width="120" height="30" as="geometry" />
        </mxCell>
        <mxCell id="achgckSoFDiOkW1UGKP5-3" value="" style="endArrow=classic;html=1;rounded=0;" edge="1" parent="1">
          <mxGeometry width="50" height="50" relative="1" as="geometry">
            <mxPoint x="-800" y="-280" as="sourcePoint" />
            <mxPoint x="-760" y="-40" as="targetPoint" />
          </mxGeometry>
        </mxCell>
        <mxCell id="achgckSoFDiOkW1UGKP5-4" value="" style="endArrow=classic;html=1;rounded=0;" edge="1" parent="1">
          <mxGeometry width="50" height="50" relative="1" as="geometry">
            <mxPoint x="-760" y="-40" as="sourcePoint" />
            <mxPoint x="-720" y="-280" as="targetPoint" />
          </mxGeometry>
        </mxCell>
        <mxCell id="achgckSoFDiOkW1UGKP5-5" value="" style="endArrow=classic;html=1;rounded=0;" edge="1" parent="1">
          <mxGeometry width="50" height="50" relative="1" as="geometry">
            <mxPoint x="-560" y="-280" as="sourcePoint" />
            <mxPoint x="-520" y="-40" as="targetPoint" />
          </mxGeometry>
        </mxCell>
        <mxCell id="achgckSoFDiOkW1UGKP5-6" value="" style="endArrow=classic;html=1;rounded=0;" edge="1" parent="1">
          <mxGeometry width="50" height="50" relative="1" as="geometry">
            <mxPoint x="-520" y="-40" as="sourcePoint" />
            <mxPoint x="-480" y="-280" as="targetPoint" />
          </mxGeometry>
        </mxCell>
        <mxCell id="achgckSoFDiOkW1UGKP5-9" value="" style="endArrow=classic;html=1;rounded=0;" edge="1" parent="1">
          <mxGeometry width="50" height="50" relative="1" as="geometry">
            <mxPoint x="-440" y="-280" as="sourcePoint" />
            <mxPoint x="-400" y="-40" as="targetPoint" />
          </mxGeometry>
        </mxCell>
        <mxCell id="achgckSoFDiOkW1UGKP5-10" value="Heartbeat" style="text;html=1;strokeColor=none;fillColor=none;align=center;verticalAlign=middle;whiteSpace=wrap;rounded=0;" vertex="1" parent="1">
          <mxGeometry x="-480" y="-180" width="60" height="30" as="geometry" />
        </mxCell>
      </root>
    </mxGraphModel>
  </diagram>
</mxfile>
